# xmcd
#
# Track frame offsets:
#	150
#	17076
#	35451
#	51202
#	72276
#	95001
#	110602
#	127311
#	143151
#	163942
#
# Disc length: 2348 seconds
#
# Revision: 1
# Processed by: cddbd v1.4PL0 Copyright (c) Steve Scherf et al.
# Submitted via: EasyCDDAExtractor 6.0.0.1
#
DISCID=94092a0a
DTITLE=Billy Scott And The Prophets - Ready To Party
DYEAR=1999
DGENRE=R&B
TTITLE0=Roll Around Rockin'
TTITLE1=I'm Ready To Party
TTITLE2=Rockin' Good Way
TTITLE3=Meet Me With Your Black Drawers On
TTITLE4=Rainy Night In Georgia
TTITLE5=Seemed Like A Good Idea At The Time
TTITLE6=Private Number
TTITLE7=Don't Wanna Break Your Heart Again
TTITLE8=One In A Million
TTITLE9=Ice Cold Katie
EXTD=
EXTT0=
EXTT1=
EXTT2=
EXTT3=
EXTT4=
EXTT5=
EXTT6=
EXTT7=
EXTT8=
EXTT9=
PLAYORDER=
